<svg xmlns="http://www.w3.org/2000/svg" xmlns:xlink="http://www.w3.org/1999/xlink" id="uuid-d5740ca4-45d1-4941-8d61-9c74bc126895" data-name="Layer 1" viewBox="0 0 600 600"><defs><linearGradient id="uuid-85ba3f94-cbbd-420c-9ce2-cd7cbb619176" x1="264.77" x2="367.12" y1="431.64" y2="431.64" gradientUnits="userSpaceOnUse"><stop offset="0" stop-color="#424241" stop-opacity="0"/><stop offset="1" stop-color="#414141"/></linearGradient><linearGradient xlink:href="#uuid-85ba3f94-cbbd-420c-9ce2-cd7cbb619176" id="uuid-5178f677-02d5-4c89-b729-93c26b804127" x1="257.54" x2="292.98" y1="175.22" y2="175.22"/><linearGradient xlink:href="#uuid-85ba3f94-cbbd-420c-9ce2-cd7cbb619176" id="uuid-de19d767-1e98-42a1-b882-b285809da21d" x1="306.95" x2="326.33" y1="306.24" y2="306.24"/><linearGradient xlink:href="#uuid-85ba3f94-cbbd-420c-9ce2-cd7cbb619176" id="uuid-cf183091-559e-44a9-9657-2112e988e2c4" x1="248.95" x2="361.27" y1="347.66" y2="347.66"/><linearGradient xlink:href="#uuid-85ba3f94-cbbd-420c-9ce2-cd7cbb619176" id="uuid-83b054c5-ebc0-4e57-8429-623249ac704a" x1="219.05" x2="219.05" y1="402.23" y2="402.23"/><linearGradient xlink:href="#uuid-85ba3f94-cbbd-420c-9ce2-cd7cbb619176" id="uuid-82149af8-8fab-4ea9-8191-b2ca92f6066f" x1="212.1" x2="324.21" y1="284.7" y2="284.7"/></defs><path fill="#414040" stroke-width="0" d="M0 0h600v600H0z"/><g fill="#fff" stroke-width="0"><path d="M354.15 232.32s.02.03.03.04c.03.04.05.08.08.11a111.965 111.965 0 0 1 19.68 59.73c2.03 50.18-24.01 73.53-51.58 98.24-23.32 20.91-47.25 42.39-52.5 80.66-1.49 11.59 1.41 16.55 7.26 16.88h.12c.96 0 1.95-.06 2.96-.2 1.66-.27 3.48-.8 5.44-1.57 32.3-13.49 48.39-31.33 53.98-52.1.91-3.37 1.54-6.81 1.92-10.33.06-.59.12-1.17.17-1.76.15-1.77.23-3.56.26-5.36.04-2.41-.03-4.84-.2-7.31a108.195 108.195 0 0 0-1.06-9.36c-.2-1.27-.42-2.54-.66-3.82-.12-.64-.25-1.28-.38-1.92-.66-3.21-1.45-6.46-2.35-9.74 1.06-.99 2.1-1.98 3.14-2.97.41-.4.82-.79 1.23-1.19.59-.57 1.18-1.15 1.77-1.73 1.23-1.22 2.45-2.45 3.65-3.69.06-.07.13-.13.19-.2.76-.79 1.51-1.59 2.26-2.39.08-.08.15-.16.23-.25 2.3-2.5 4.53-5.06 6.67-7.71 2.68-3.33 5.22-6.79 7.57-10.46a98.62 98.62 0 0 0 5.85-10.51c9.37 24.07 16.19 49.08 17.93 75.03 2.39 35.81-28.36 81.05-81.34 81.05-6 0-12.29-.58-18.85-1.82l-.44-.09c-1.15-.22-2.32-.47-3.49-.73l-.94-.21c-1.33-.31-2.67-.64-4.03-1.01-2.05-.54-3.77-1.12-5.24-1.75-.73-.32-1.4-.65-2.02-.99-.31-.17-.6-.35-.89-.53a15.68 15.68 0 0 1-2.26-1.74c-1.34-1.23-2.38-2.63-3.41-4.22l-.09-.15c-5.94-10.05-10.33-21.21-12.96-32.75 0-.03-.01-.06-.02-.08-.72-3.15-1.3-6.33-1.75-9.52-.01-.1-.03-.19-.04-.29-.29-2.1-.52-4.2-.69-6.3 0-.11-.02-.21-.02-.32-.07-.91-.13-1.83-.18-2.74 0-.18-.02-.36-.03-.54-.1-2.03-.14-4.06-.13-6.09V427c.01-.8.03-1.6.06-2.4 0-.25.02-.5.03-.75.04-.96.09-1.93.16-2.89v-.06c.07-.98.16-1.95.26-2.93l.09-.8c.08-.73.17-1.45.26-2.18.04-.28.07-.56.11-.84.13-.96.28-1.91.44-2.87.7-4.72 1.65-9.16 2.84-13.36a94.064 94.064 0 0 1 5.48-14.66c2.58-5.47 5.59-10.49 8.94-15.19.56-.78 1.12-1.56 1.7-2.33 7.76-10.33 17.11-19.17 26.91-27.95l2.31-2.07 3.24-2.88c2.44-2.16 4.88-4.32 7.3-6.52.16-.14.32-.29.48-.43 4.11-3.72 8.16-7.51 12.06-11.49a147.762 147.762 0 0 0 5.73-6.15c.81-.91 1.61-1.83 2.39-2.77 2.54-3.01 4.96-6.13 7.22-9.42.65-.95 1.29-1.91 1.92-2.89 1.88-2.93 3.63-5.99 5.22-9.19 2.13-4.27 3.98-8.8 5.5-13.65 3.42-10.9 5.16-23.38 4.52-38.04m-11.5-34.14 1.5 34.6c.55 12.8-.78 24.12-4.07 34.61a83.8 83.8 0 0 1-4.91 12.18 87.52 87.52 0 0 1-4.69 8.26c-.56.87-1.14 1.75-1.74 2.62-1.95 2.84-4.12 5.67-6.62 8.64-.73.87-1.48 1.73-2.23 2.57-1.16 1.31-2.2 2.44-3.16 3.47-.74.78-1.48 1.55-2.23 2.32-3.25 3.31-6.94 6.83-11.63 11.07l-.47.42c-2.46 2.22-5 4.47-7.23 6.45-1.09.96-2.17 1.93-3.25 2.89-.78.7-1.56 1.39-2.34 2.09-9.11 8.16-19.56 17.83-28.24 29.39-.63.83-1.25 1.69-1.85 2.53-3.89 5.46-7.1 10.93-9.83 16.72-2.44 5.17-4.47 10.62-6.05 16.2-1.31 4.64-2.35 9.52-3.09 14.51-.16.92-.31 1.92-.47 3.05-.03.25-.07.49-.1.74l-.02.18c-.1.79-.2 1.59-.29 2.39l-.02.22c-.02.22-.05.44-.07.66-.12 1.17-.21 2.22-.28 3.22v.13c-.07.96-.12 1.97-.17 3.1 0 .23-.02.45-.03.68v.15c-.04.87-.06 1.74-.07 2.62V427.51c-.02 2.18.03 4.42.14 6.65l.02.47v.12c.06 1 .13 2.01.2 2.99v.09l.03.26c.18 2.25.44 4.56.75 6.86l.03.22v.1c.5 3.45 1.14 6.94 1.91 10.35l.02.07c2.9 12.71 7.64 24.69 14.1 35.62l.1.17.1.17.11.17c1.12 1.73 2.7 3.99 5.03 6.13 1.14 1.05 2.33 1.97 3.67 2.82.44.28.9.56 1.37.82.92.51 1.91 1 2.94 1.45 1.96.85 4.13 1.58 6.63 2.24 1.32.36 2.69.7 4.32 1.08.28.07.56.13.83.19l.2.04c1.28.29 2.55.56 3.79.8l.13.03.36.07c6.99 1.32 13.96 2 20.7 2 26.09 0 49.99-10.18 67.29-28.68 16.5-17.64 25.48-41.2 24.03-63.04-1.64-24.56-7.72-50.07-18.58-77.99l-1.47-3.77c4.51-12.44 6.92-26.87 6.22-44.18-.77-23.28-8.17-45.75-21.39-64.97v-.02l-.03-.02s-.01-.02-.02-.02l-.02-.03c-.03-.05-.06-.1-.09-.14l-19.71-28.47Zm-62.91 274.27c4.77-34.64 26.38-54.01 49.27-74.53.32-.29.65-.58.97-.87.07.34.13.68.2 1.02.22 1.18.43 2.36.61 3.51.09.58.18 1.15.26 1.73.32 2.3.56 4.57.71 6.76.15 2.21.21 4.39.18 6.48a64.889 64.889 0 0 1-.38 6.21c-.33 3.04-.88 6-1.63 8.8-5.16 19.19-20.88 34.05-48.05 45.42-.99.38-1.78.62-2.4.78-.07-1.12-.05-2.82.26-5.3Z"/><path d="M335.65 272.16c1.39 2.58 2.78 5.17 4.16 7.78a93.458 93.458 0 0 1-5.67 10.22c-2.38 3.72-5.01 7.25-7.81 10.63-2.5 3.02-5.13 5.93-7.85 8.75-.23.23-.46.47-.68.7a209.1 209.1 0 0 1-3.33 3.33c-.3.29-.59.59-.89.87-1.33 1.29-2.67 2.57-4.03 3.83-.57-1.14-1.15-2.28-1.73-3.42-.29-.58-.58-1.15-.87-1.73s.01-.01.02-.02c.83-.82 1.65-1.65 2.47-2.49.34-.35.67-.7 1.01-1.04l1.37-1.43c.44-.46.87-.93 1.3-1.4.3-.33.6-.66.91-.99 2.61-2.88 5.11-5.85 7.48-8.95.02-.03.05-.06.07-.1.63-.82 1.24-1.65 1.85-2.49 1.28-1.77 2.53-3.57 3.72-5.44 3.4-5.32 6.22-10.85 8.5-16.61m-1.37-23.65-7.92 19.96a87.855 87.855 0 0 1-7.64 14.92 113.014 113.014 0 0 1-5.09 7.25l-.06.08c-2.1 2.74-4.37 5.46-6.96 8.31l-.16.18c-.23.25-.45.5-.68.75-.41.45-.82.89-1.23 1.32-.42.45-.85.9-1.29 1.35l-.26.27-.7.73c-.77.79-1.56 1.58-2.35 2.37l-.02.02-.03.03-5.1 5.12 3.26 6.46.5.98.37.73.3.59c.47.94.95 1.88 1.42 2.82l5.98 11.91 9.76-9.08c1.31-1.21 2.67-2.51 4.17-3.96.22-.21.43-.42.64-.63l.3-.29c1.15-1.12 2.32-2.29 3.48-3.48l.2-.21.52-.54c3.09-3.2 5.83-6.25 8.37-9.33 3.27-3.96 6.05-7.75 8.52-11.61 2.33-3.64 4.44-7.44 6.28-11.31l2.16-4.55-2.37-4.45c-1.39-2.62-2.79-5.22-4.19-7.82l-10.18-18.91ZM282.56 100.5c6.86 13.77 4.4 23.52 3.28 31.5-3.46 24.77 5.03 51.45 18.39 80.01a91.003 91.003 0 0 1-6.95 12.99c-2 3.12-4.18 6.11-6.48 8.99l-.21.27c-.72.9-1.46 1.8-2.21 2.68-.08.09-.15.18-.23.27-.77.9-1.55 1.79-2.34 2.68-.05.05-.1.11-.15.16-.83.92-1.66 1.83-2.51 2.73-2.3 2.44-4.67 4.83-7.09 7.15a355.36 355.36 0 0 1-3.34-7.96c-2.15-5.29-4.14-10.56-5.92-15.79-1.34-3.92-2.56-7.82-3.64-11.7-3.62-12.92-5.72-25.55-5.62-37.72.02-2.43.13-4.85.34-7.24.12-1.37.28-2.74.46-4.1.92-6.94 2.67-13.7 5.4-20.25 1.87-4.48 4.2-8.85 7.02-13.12.34-.52.69-1.03 1.04-1.55.31-.46.63-.93.95-1.4.1-.15.2-.3.31-.46.24-.35.48-.71.72-1.07.13-.19.25-.39.38-.58l.63-.96c.13-.21.27-.42.4-.62.2-.31.4-.63.59-.95.13-.22.27-.43.4-.65.2-.32.39-.65.58-.98.12-.22.25-.43.37-.65.2-.36.4-.73.6-1.11.1-.19.21-.38.31-.57.29-.56.57-1.13.84-1.72v-.02c.29-.62.57-1.26.83-1.91 1.06-2.61 1.9-5.45 2.39-8.62.12-.79.22-1.61.3-2.44.15-1.67.21-3.44.15-5.3M271.17 55.2l1.4 45.61c.04 1.4 0 2.78-.11 4.09-.06.62-.13 1.23-.22 1.83-.34 2.19-.92 4.28-1.77 6.38-.18.44-.37.89-.58 1.33s-.07.16-.07.16c-.19.41-.41.85-.66 1.34l-.1.19-.14.26c-.16.31-.32.61-.49.91-.08.14-.16.27-.24.41l-.07.13c-.16.28-.33.56-.49.84-.11.19-.23.37-.34.56-.17.28-.35.56-.52.84-.12.19-.24.38-.36.56-.19.29-.38.59-.57.88l-.13.2-.23.34-.69 1.02-.15.22-.15.23-.41.61-.54.8c-.37.54-.73 1.08-1.09 1.62a88.92 88.92 0 0 0-7.92 14.79c-2.98 7.14-5.03 14.8-6.09 22.79-.22 1.66-.39 3.15-.51 4.57-.22 2.61-.35 5.3-.37 8-.11 12.46 1.85 25.71 5.99 40.5 1.1 3.94 2.38 8.05 3.81 12.23 1.76 5.18 3.82 10.67 6.12 16.33 1.07 2.64 2.23 5.39 3.43 8.17l5.72 13.22 10.39-9.98c2.54-2.44 5.01-4.93 7.34-7.4l.04-.04.11-.12c.86-.91 1.76-1.89 2.63-2.85l.11-.12.04-.05c.88-.98 1.72-1.94 2.51-2.87l.19-.22.06-.07c.87-1.03 1.65-1.97 2.39-2.89l.2-.25.04-.05c2.69-3.37 5-6.59 7.08-9.83 2.98-4.66 5.57-9.51 7.7-14.41l1.79-4.14-1.91-4.08c-14.88-31.8-20.29-54.74-17.55-74.39.1-.74.22-1.49.34-2.26 1.21-7.89 3.03-19.82-4.57-35.08l-20.35-40.84Z"/><path d="M317.3 167.18s.06.09.09.14a111.958 111.958 0 0 1 19.69 59.75c2.03 50.18-24.01 73.53-51.58 98.24-27.38 24.54-55.62 49.86-53.46 102.23-10.68-15.41-17.43-34.13-19.36-53.07l-.03-.31c-.1-1.04-.19-2.07-.26-3.11 0-.14-.02-.27-.03-.41-.15-2.24-.23-4.47-.25-6.7v-.67c0-.89.01-1.77.03-2.65 0-.25.01-.5.02-.75.07-2.15.21-4.29.41-6.42l.09-.89c.08-.79.17-1.57.27-2.36l.12-.92c.14-1.04.3-2.09.48-3.12.35-2.36.76-4.65 1.23-6.88.47-2.22 1.01-4.38 1.6-6.48.3-1.05.61-2.08.93-3.1 1.95-6.11 4.41-11.7 7.26-16.88.48-.86.96-1.72 1.46-2.56 9.96-16.84 24.19-29.46 38.93-42.52 6.72-5.96 13.49-11.96 19.84-18.43 1.59-1.62 3.15-3.26 4.67-4.95 1.53-1.68 3.02-3.4 4.46-5.16 2.17-2.64 4.25-5.38 6.21-8.23 2.61-3.8 5.01-7.81 7.14-12.08 2.13-4.27 3.98-8.8 5.5-13.65 1.14-3.63 2.09-7.44 2.84-11.45.74-4.01 1.27-8.21 1.56-12.64.19-2.95.28-6 .25-9.15-.01-1.58-.05-3.18-.12-4.81m-11.49-34.3 1.5 34.72c.06 1.5.1 3 .12 4.46.02 2.86-.06 5.69-.23 8.41-.26 3.93-.73 7.79-1.41 11.47-.65 3.51-1.5 6.96-2.54 10.27a83.8 83.8 0 0 1-4.91 12.18 90.918 90.918 0 0 1-6.43 10.88c-1.71 2.5-3.63 5.03-5.69 7.53-1.3 1.58-2.69 3.19-4.15 4.8-1.37 1.52-2.85 3.08-4.4 4.66-6.1 6.22-12.83 12.18-19.33 17.95-14.82 13.14-30.14 26.72-40.9 44.92a104.478 104.478 0 0 0-9.64 21.49c-.36 1.12-.71 2.27-1.03 3.42-.66 2.32-1.25 4.72-1.76 7.12-.51 2.41-.96 4.89-1.33 7.39-.17 1-.34 2.09-.51 3.33-.04.26-.07.52-.1.79l-.03.23c-.11.86-.21 1.73-.3 2.59l-.02.23c-.03.25-.05.5-.08.75-.22 2.32-.37 4.69-.45 7.05 0 .21-.01.41-.02.61v.21c-.03.96-.04 1.94-.04 2.9v.73c.01 2.41.1 4.87.27 7.31l.02.31v.13c.09 1.12.19 2.26.3 3.38v.09l.03.25c2.11 20.66 9.59 41.17 21.09 57.75l19.63 28.31-1.42-34.42c-1.96-47.66 23.35-70.35 50.14-94.37 28.08-25.17 57.11-51.2 54.91-106.07-.78-23.29-8.17-45.75-21.4-64.97-.05-.07-.1-.15-.15-.22l-19.73-28.6ZM278.57 495.59l.11.03-.11-.03m0-10h-8.62l-1.27 8.53c-.73 4.94 2.25 9.6 7.09 11.07l4.64 1.41 3.98-2.78.14-.09.14-.1 16.42-12.26-19.77-5.39c-.42-.11-1.4-.38-2.74-.38Z"/></g><g fill="#d6ac62" stroke-width="0"><path d="M387.77 418.44c-1.73-25.95-8.56-50.96-17.93-75.03a99.607 99.607 0 0 1-5.85 10.51c-7.43 11.64-16.67 21.24-26.71 30.59 11.56 42.04 4.21 78.38-51.67 101.71-11.29 4.38-17.87 1.2-15.78-15.11 5.25-38.28 29.18-59.76 52.5-80.66 27.57-24.72 53.61-48.06 51.58-98.24-.71-21.5-7.65-42.33-19.78-59.88 2.26 52.13-25.47 76.71-52.35 100.54-23.58 20.91-45.86 40.65-51.42 78.43-4.31 25.19 1.29 52.88 14.48 75.11 2.75 4.24 5.6 7.08 13.82 9.23 69.77 18.94 111.87-35.51 109.09-77.18Z"/><path d="M334.14 290.16c2.14-3.34 4.02-6.74 5.67-10.22-1.39-2.6-2.77-5.2-4.16-7.78a98.592 98.592 0 0 1-8.5 16.61c-5.79 9.07-12.68 16.9-20.2 24.35.87 1.72 1.74 3.43 2.6 5.15 9.12-8.48 17.82-17.54 24.59-28.11ZM297.29 225.01c2.7-4.22 5.02-8.54 6.95-12.99-13.36-28.56-21.85-55.24-18.39-80.01 1.11-7.99 3.57-17.74-3.28-31.5.46 14.92-6.33 23.32-11.8 31.57-22.63 34.12-13.1 75.33 5.3 117.88 7.88-7.57 15.3-15.67 21.23-24.94Z"/><path d="M232.04 427.53c-16.04-23.14-23.23-53.77-18.51-81.39 5.56-37.77 27.84-57.52 51.42-78.43 26.88-23.83 54.61-48.41 52.35-100.54a111.978 111.978 0 0 1 19.78 59.88c2.03 50.18-24.01 73.53-51.58 98.24-27.38 24.54-55.62 49.86-53.46 102.23ZM278.68 495.63c-.14-.04-.15-.04 0 0Z"/></g><path fill="url(#uuid-85ba3f94-cbbd-420c-9ce2-cd7cbb619176)" stroke-width="0" d="M366.99 418.44c-1.23-18.5-5.07-36.52-10.56-54.07-5.8 7.2-12.28 13.74-19.14 20.14 11.56 42.04 4.21 78.38-51.67 101.71-9.56 4.37-18.77-.84-20.79 0-.02 0-.04.01-.06.02l.09.15c2.75 4.24 5.6 7.08 13.82 9.23 5.95 1.61 11.68 2.68 17.22 3.28 46.66-5.39 73.32-47.04 71.09-80.47Z" opacity=".15"/><path fill="url(#uuid-5178f677-02d5-4c89-b729-93c26b804127)" stroke-width="0" d="M280.34 245.72c.95-.97 1.89-1.94 2.82-2.93 3.47-3.68 6.78-7.52 9.82-11.58-12.9-27.63-23.16-72.55-14.73-95.32 8.47-22.87 6.28-26.05 4.32-35.38.11 3.73-.22 7.05-.88 10.07-.66 3.01-1.63 5.72-2.79 8.22-2.03 4.37-4.63 8.11-7.08 11.73-.35.52-.7 1.03-1.04 1.55-22.63 34.12-13.1 75.33 5.3 117.88 1.17-1.12 2.33-2.26 3.47-3.42.27-.27.53-.54.8-.81Z" opacity=".15"/><path fill="url(#uuid-de19d767-1e98-42a1-b882-b285809da21d)" stroke-width="0" d="M326.33 300.79c-.86-1.87-1.83-4.08-2.91-6.58-4.94 6.83-10.51 13-16.47 18.91.87 1.72 1.74 3.43 2.6 5.15 5.91-5.49 11.64-11.24 16.78-17.48Z" opacity=".15"/><path fill="url(#uuid-cf183091-559e-44a9-9657-2112e988e2c4)" stroke-width="0" d="M309.58 365.86c27.57-24.72 53.61-48.06 51.58-98.24a111.73 111.73 0 0 0-6.91-35.14.864.864 0 0 1-.1-.16c2.26 52.13-25.47 76.71-52.35 100.54-23.58 20.91-45.86 40.65-51.42 78.43-2.89 16.91-1.31 34.95 4.03 51.71.85-1.52 1.4-6.59 2.67-16.47 5.25-38.28 29.18-59.76 52.5-80.66Z" opacity=".2"/><g stroke-width="0" opacity=".2"><path fill="url(#uuid-83b054c5-ebc0-4e57-8429-623249ac704a)" d="M219.05 402.23z"/><path fill="url(#uuid-82149af8-8fab-4ea9-8191-b2ca92f6066f)" d="M324.1 201.87c-.39-11.87-2.69-23.53-6.71-34.55-.03-.05-.06-.09-.09-.14 2.26 52.13-25.47 76.71-52.35 100.54-23.58 20.91-45.86 40.65-51.42 78.43-3.15 18.4-1 38.12 5.52 56.08-2.11-52.3 26.1-77.59 53.46-102.12 27.57-24.72 53.61-48.06 51.58-98.24Z"/></g></svg>