<svg xmlns="http://www.w3.org/2000/svg" viewBox="0 0 600 600"><circle cx="300" cy="300" r="300" stroke-width="0"/><g fill="#fff"><path d="M221.7 437.7a110.795 110.795 0 0 0 35.2 23.65c13.64 5.76 28.13 8.65 43.08 8.65s29.44-2.9 43.08-8.65c13.18-5.56 25-13.48 35.2-23.65 10.16-10.12 18.16-21.91 23.72-35.04 5.76-13.56 8.69-28.01 8.69-42.89V178.56c0-11.9-9.66-21.56-21.56-21.56h-2.2c-11.9 0-21.56 9.66-21.56 21.56v146.78c0 19.09-15.53 34.58-34.58 34.58h-2.2c-4.67 0-9.23-.93-13.48-2.74-4.13 1.78-8.69 2.74-13.48 2.74h-21.79c.5.5.97 1.04 1.43 1.55 13.79 15.92 10.74 38.64 10.59 39.6-.46 3.25-3.25 5.6-6.41 5.6-.31 0-.62 0-.93-.08-3.55-.5-6.03-3.79-5.53-7.38 0-.15 2.32-17.93-7.61-29.29-5.8-6.65-14.95-10.05-27.24-10.05-3.59 0-6.49-2.9-6.49-6.49s2.9-6.49 6.49-6.49h57.45c11.9 0 21.56-9.66 21.56-21.56v-2.2c0-11.9-9.66-21.56-21.56-21.56h-90.68c-11.9 0-21.56 9.66-21.56 21.56v36.63c0 14.87 2.94 29.32 8.69 42.89 5.56 13.14 13.56 24.92 23.72 35.04h-.04Z"/><path d="M336.14 323.14v2.2c0 8.15-2.82 15.65-7.57 21.56h2.16c11.9 0 21.56-9.66 21.56-21.56v-83.38c0-11.9-9.66-21.56-21.56-21.56h-2.2c-11.9 0-21.56 9.66-21.56 21.56v47.02c16.5 2.59 29.17 16.92 29.17 34.15ZM234.65 288.56v-137c0-11.9-9.66-21.56-21.56-21.56h-2.2c-11.9 0-21.56 9.66-21.56 21.56v144.58a34.287 34.287 0 0 1 21.56-7.57h23.8-.04ZM293.03 231.85c0-11.9-9.66-21.56-21.56-21.56h-2.2c-11.9 0-21.56 9.66-21.56 21.56v56.72h45.36v-56.72h-.04Z"/></g></svg>
